<svg viewBox="0 0 220 520" xmlns="http://www.w3.org/2000/svg">
  <g fill="none" stroke="#111" stroke-width="2">
    <!-- head -->
    <ellipse cx="110" cy="55" rx="45" ry="55"/>
    <!-- neck -->
    <path d="M92 110 C95 135, 125 135, 128 110"/>
    <!-- shoulders/arms -->
    <path d="M70 132 C30 150, 20 220, 35 260 C45 285, 55 300, 62 320"/>
    <path d="M150 132 C190 150, 200 220, 185 260 C175 285, 165 300, 158 320"/>
    <!-- torso -->
    <path d="M78 135 C70 180, 68 230, 74 275 C80 320, 88 355, 96 382"/>
    <path d="M142 135 C150 180, 152 230, 146 275 C140 320, 132 355, 124 382"/>
    <!-- hips -->
    <path d="M96 382 C88 410, 85 435, 92 460"/>
    <path d="M124 382 C132 410, 135 435, 128 460"/>
    <!-- legs -->
    <path d="M92 460 C85 495, 88 510, 98 515"/>
    <path d="M128 460 C135 495, 132 510, 122 515"/>
    <!-- feet -->
    <path d="M98 515 C105 518, 115 518, 122 515"/>
    <!-- midline hints -->
    <path d="M110 120 C108 180, 108 250, 110 330 C112 410, 112 470, 110 510" stroke-dasharray="6 6"/>
  </g>
</svg>
